<svg width="118" height="84" viewBox="0 0 118 84" fill="none" xmlns="http://www.w3.org/2000/svg">
<path d="M19.585 11.294H21.345L21.026 10.37C20.9233 10.084 20.828 9.798 20.74 9.512C20.652 9.21867 20.5677 8.92533 20.487 8.632H20.465C20.3843 8.91067 20.2963 9.19667 20.201 9.49C20.1057 9.776 20.0067 10.0693 19.904 10.37L19.585 11.294ZM19.717 7.07H21.279L23.842 14H22.247L21.708 12.405H19.244L18.705 14H17.132L19.717 7.07Z" fill="#050505"/>
<path d="M0 56.0083C0 54.3469 1.34688 53 3.00833 53H69.1917C70.8531 53 72.2 54.3469 72.2 56.0083V80.075C72.2 81.7365 70.8531 83.0833 69.1917 83.0833H3.00833C1.34688 83.0833 0 81.7365 0 80.075V56.0083Z" fill="#D1036F"/>
<path d="M21.5415 63.9605C22.3197 63.9605 22.9334 64.133 23.3826 64.4779C23.8399 64.8149 24.0685 65.2962 24.0685 65.9219C24.0685 66.1546 24.0284 66.3632 23.9482 66.5477C23.876 66.7242 23.7757 66.8806 23.6474 67.017C23.519 67.1453 23.3706 67.2536 23.2021 67.3419C23.0337 67.4301 22.8612 67.4983 22.6847 67.5464C22.9013 67.5865 23.1059 67.6547 23.2984 67.751C23.499 67.8473 23.6714 67.9756 23.8158 68.1361C23.9683 68.2885 24.0846 68.473 24.1648 68.6896C24.2531 68.8982 24.2972 69.1388 24.2972 69.4116C24.2972 69.7245 24.229 70.0133 24.0926 70.278C23.9562 70.5347 23.7637 70.7593 23.515 70.9519C23.2663 71.1364 22.9655 71.2808 22.6125 71.3851C22.2676 71.4894 21.8865 71.5415 21.4693 71.5415H18.9784V63.9605H21.5415ZM20.4465 67.041H21.2648C21.6338 67.041 21.9427 66.9648 22.1913 66.8124C22.44 66.652 22.5644 66.3912 22.5644 66.0302C22.5644 65.7174 22.4521 65.4847 22.2274 65.3323C22.0108 65.1719 21.706 65.0916 21.3129 65.0916H20.4465V67.041ZM20.4465 70.4104H21.2768C21.4854 70.4104 21.6819 70.3903 21.8664 70.3502C22.051 70.3101 22.2114 70.2459 22.3478 70.1577C22.4842 70.0694 22.5884 69.9531 22.6606 69.8087C22.7409 69.6563 22.781 69.4758 22.781 69.2672C22.781 69.0666 22.7369 68.8982 22.6486 68.7618C22.5604 68.6174 22.444 68.5011 22.2996 68.4128C22.1552 68.3246 21.9868 68.2604 21.7942 68.2203C21.6017 68.1802 21.4012 68.1601 21.1926 68.1601H20.4465V70.4104ZM29.3102 65.8257H30.7301V71.5415H29.6592L29.4907 70.8797H29.4426C29.258 71.0722 29.0134 71.2527 28.7085 71.4212C28.4037 71.5816 28.0226 71.6618 27.5654 71.6618C26.9637 71.6618 26.4824 71.4934 26.1214 71.1564C25.7604 70.8195 25.5799 70.3141 25.5799 69.6402V65.8257H26.9998V69.4958C26.9998 69.8889 27.088 70.1697 27.2645 70.3382C27.449 70.4986 27.6817 70.5788 27.9625 70.5788C28.2593 70.5788 28.516 70.5187 28.7326 70.3983C28.9572 70.27 29.1497 70.1135 29.3102 69.929V65.8257ZM35.5159 66.8605H33.9395V69.7245C33.9395 69.9972 34.0037 70.1857 34.1321 70.29C34.2685 70.3863 34.4409 70.4344 34.6495 70.4344C34.81 70.4344 34.9784 70.4184 35.1549 70.3863C35.3314 70.3542 35.4798 70.3101 35.6001 70.2539L35.8167 71.2647C35.6643 71.3289 35.4557 71.3931 35.191 71.4573C34.9343 71.5134 34.6575 71.5415 34.3607 71.5415C33.7109 71.5415 33.2416 71.4091 32.9528 71.1444C32.672 70.8797 32.5316 70.4826 32.5316 69.9531V66.8605H31.6652V65.8257H32.5316V64.0447H33.9395V65.8257H35.5159V66.8605ZM39.9226 66.8605H38.3463V69.7245C38.3463 69.9972 38.4105 70.1857 38.5388 70.29C38.6752 70.3863 38.8477 70.4344 39.0562 70.4344C39.2167 70.4344 39.3852 70.4184 39.5616 70.3863C39.7381 70.3542 39.8865 70.3101 40.0069 70.2539L40.2235 71.2647C40.0711 71.3289 39.8625 71.3931 39.5977 71.4573C39.341 71.5134 39.0643 71.5415 38.7674 71.5415C38.1176 71.5415 37.6483 71.4091 37.3595 71.1444C37.0788 70.8797 36.9384 70.4826 36.9384 69.9531V66.8605H36.072V65.8257H36.9384V64.0447H38.3463V65.8257H39.9226V66.8605ZM46.6249 68.6415C46.6249 69.1148 46.5487 69.54 46.3963 69.917C46.2519 70.294 46.0473 70.6109 45.7826 70.8676C45.5179 71.1243 45.209 71.3209 44.856 71.4573C44.5031 71.5936 44.122 71.6618 43.7129 71.6618C43.3037 71.6618 42.9227 71.5977 42.5697 71.4693C42.2247 71.3409 41.9239 71.1564 41.6672 70.9158C41.4105 70.6671 41.2099 70.3622 41.0655 70.0012C40.9211 69.6402 40.8489 69.2271 40.8489 68.7618C40.8489 68.2805 40.9211 67.8513 41.0655 67.4742C41.218 67.0892 41.4265 66.7683 41.6913 66.5116C41.956 66.2549 42.2649 66.0583 42.6178 65.9219C42.9708 65.7856 43.3519 65.7174 43.761 65.7174C44.1701 65.7174 44.5472 65.7815 44.8921 65.9099C45.2451 66.0302 45.55 66.2147 45.8067 66.4634C46.0634 66.7121 46.2639 67.017 46.4083 67.378C46.5527 67.739 46.6249 68.1601 46.6249 68.6415ZM45.1569 68.7016C45.1569 68.3567 45.1168 68.0639 45.0365 67.8232C44.9563 67.5745 44.848 67.374 44.7116 67.2215C44.5833 67.0691 44.4309 66.9568 44.2544 66.8846C44.0859 66.8124 43.9094 66.7763 43.7249 66.7763C43.5404 66.7763 43.3639 66.8084 43.1954 66.8726C43.027 66.9287 42.8786 67.033 42.7502 67.1854C42.6218 67.3298 42.5176 67.5264 42.4373 67.7751C42.3571 68.0238 42.317 68.3326 42.317 68.7016C42.317 69.0386 42.3571 69.3274 42.4373 69.568C42.5176 69.8007 42.6218 69.9972 42.7502 70.1577C42.8866 70.3101 43.039 70.4224 43.2075 70.4946C43.384 70.5668 43.5645 70.6029 43.749 70.6029C43.9255 70.6029 44.0979 70.5708 44.2664 70.5066C44.4429 70.4425 44.5953 70.3382 44.7237 70.1938C44.852 70.0494 44.9563 69.8568 45.0365 69.6162C45.1168 69.3675 45.1569 69.0626 45.1569 68.7016ZM49.2332 71.5415H47.8133V65.8257H48.9204L49.1009 66.5838C49.3736 66.311 49.6664 66.0984 49.9793 65.946C50.2922 65.7936 50.6411 65.7174 51.0262 65.7174C51.6439 65.7174 52.1212 65.8898 52.4582 66.2348C52.7951 66.5717 52.9636 67.0531 52.9636 67.6788V71.5415H51.5436V67.8473C51.5436 67.5424 51.4634 67.2977 51.303 67.1132C51.1506 66.9207 50.9179 66.8244 50.605 66.8244C50.3724 66.8244 50.1357 66.8886 49.8951 67.017C49.6544 67.1373 49.4338 67.3018 49.2332 67.5103V71.5415Z" fill="white"/>
<line x1="20.5" y1="62" x2="20.5" y2="21" stroke="black"/>
<circle cx="20.5" cy="10.5" r="10" stroke="black"/>
<circle cx="20.5" cy="61.5" r="1.5" fill="black"/>
<path d="M107.542 64.7624C108.275 64.7624 108.854 64.92 109.28 65.2354C109.705 65.5507 109.918 65.9944 109.918 66.5664C109.918 66.779 109.877 66.9697 109.797 67.1384C109.723 67.307 109.624 67.4537 109.5 67.5784C109.382 67.6957 109.247 67.7947 109.093 67.8754C108.946 67.956 108.796 68.0147 108.642 68.0514C108.847 68.088 109.038 68.1504 109.214 68.2384C109.397 68.319 109.555 68.429 109.687 68.5684C109.826 68.7077 109.932 68.8764 110.006 69.0744C110.086 69.265 110.127 69.485 110.127 69.7344C110.127 70.0204 110.064 70.2844 109.94 70.5264C109.815 70.761 109.635 70.9664 109.401 71.1424C109.173 71.3184 108.895 71.454 108.565 71.5494C108.242 71.6447 107.883 71.6924 107.487 71.6924H105.067V64.7624H107.542ZM106.574 67.5344H107.289C107.619 67.5344 107.879 67.4647 108.07 67.3254C108.268 67.1787 108.367 66.9624 108.367 66.6764C108.367 66.4197 108.275 66.229 108.092 66.1044C107.916 65.9724 107.659 65.9064 107.322 65.9064H106.574V67.5344ZM106.574 70.5484H107.289C107.663 70.5484 107.971 70.4787 108.213 70.3394C108.455 70.1927 108.576 69.9434 108.576 69.5914C108.576 69.2614 108.447 69.0267 108.191 68.8874C107.934 68.7407 107.619 68.6674 107.245 68.6674H106.574V70.5484Z" fill="#050505"/>
<line x1="74" y1="68.5" x2="97" y2="68.5" stroke="black"/>
<circle cx="107.5" cy="68.5" r="10" transform="rotate(90 107.5 68.5)" stroke="black"/>
<circle cx="73.5" cy="68.5" r="1.5" transform="rotate(90 73.5 68.5)" fill="black"/>
</svg>
