<svg width="118" height="120" viewBox="0 0 118 120" fill="none" xmlns="http://www.w3.org/2000/svg">
<path d="M0 55C0 53.3431 1.34315 52 3 52H69C70.6569 52 72 53.3431 72 55V79C72 80.6569 70.6569 82 69 82H3C1.34315 82 0 80.6569 0 79V55Z" fill="#D1036F"/>
<path d="M23.7594 71.0137L20.716 67.9703C21.1883 67.3598 21.4438 66.6133 21.4438 65.8281C21.4438 64.8883 21.077 64.007 20.4137 63.3426C19.7504 62.6781 18.8668 62.3125 17.9281 62.3125C16.9895 62.3125 16.1059 62.6793 15.4426 63.3426C14.7781 64.0059 14.4125 64.8883 14.4125 65.8281C14.4125 66.7668 14.7793 67.6504 15.4426 68.3137C16.1059 68.9781 16.9883 69.3438 17.9281 69.3438C18.7133 69.3438 19.4586 69.0883 20.0691 68.6172L23.1125 71.6594C23.1214 71.6683 23.132 71.6754 23.1437 71.6802C23.1554 71.6851 23.1679 71.6875 23.1805 71.6875C23.1931 71.6875 23.2056 71.6851 23.2173 71.6802C23.2289 71.6754 23.2395 71.6683 23.2484 71.6594L23.7594 71.1496C23.7683 71.1407 23.7754 71.1301 23.7802 71.1184C23.7851 71.1068 23.7875 71.0943 23.7875 71.0816C23.7875 71.069 23.7851 71.0565 23.7802 71.0449C23.7754 71.0332 23.7683 71.0226 23.7594 71.0137ZM19.7844 67.6844C19.2875 68.1801 18.6289 68.4531 17.9281 68.4531C17.2274 68.4531 16.5688 68.1801 16.0719 67.6844C15.5762 67.1875 15.3031 66.5289 15.3031 65.8281C15.3031 65.1273 15.5762 64.4676 16.0719 63.9719C16.5688 63.4762 17.2274 63.2031 17.9281 63.2031C18.6289 63.2031 19.2887 63.475 19.7844 63.9719C20.2801 64.4688 20.5531 65.1273 20.5531 65.8281C20.5531 66.5289 20.2801 67.1887 19.7844 67.6844Z" fill="white"/>
<path d="M32.6456 63.452C33.2664 63.452 33.756 63.5896 34.1144 63.8648C34.4792 64.1336 34.6616 64.5176 34.6616 65.0168C34.6616 65.2024 34.6296 65.3688 34.5656 65.516C34.508 65.6568 34.428 65.7816 34.3256 65.8904C34.2232 65.9928 34.1048 66.0792 33.9704 66.1496C33.836 66.22 33.6984 66.2744 33.5576 66.3128C33.7304 66.3448 33.8936 66.3992 34.0472 66.476C34.2072 66.5528 34.3448 66.6552 34.46 66.7832C34.5816 66.9048 34.6744 67.052 34.7384 67.2248C34.8088 67.3912 34.844 67.5832 34.844 67.8008C34.844 68.0504 34.7896 68.2808 34.6808 68.492C34.572 68.6968 34.4184 68.876 34.22 69.0296C34.0216 69.1768 33.7816 69.292 33.5 69.3752C33.2248 69.4584 32.9208 69.5 32.588 69.5H30.6008V63.452H32.6456ZM31.772 65.9096H32.4248C32.7192 65.9096 32.9656 65.8488 33.164 65.7272C33.3624 65.5992 33.4616 65.3912 33.4616 65.1032C33.4616 64.8536 33.372 64.668 33.1928 64.5464C33.02 64.4184 32.7768 64.3544 32.4632 64.3544H31.772V65.9096ZM31.772 68.5976H32.4344C32.6008 68.5976 32.7576 68.5816 32.9048 68.5496C33.052 68.5176 33.18 68.4664 33.2888 68.396C33.3976 68.3256 33.4808 68.2328 33.5384 68.1176C33.6024 67.996 33.6344 67.852 33.6344 67.6856C33.6344 67.5256 33.5992 67.3912 33.5288 67.2824C33.4584 67.1672 33.3656 67.0744 33.2504 67.004C33.1352 66.9336 33.0008 66.8824 32.8472 66.8504C32.6936 66.8184 32.5336 66.8024 32.3672 66.8024H31.772V68.5976ZM38.8433 64.94H39.9761V69.5H39.1217L38.9873 68.972H38.9489C38.8017 69.1256 38.6065 69.2696 38.3633 69.404C38.1201 69.532 37.8161 69.596 37.4513 69.596C36.9713 69.596 36.5873 69.4616 36.2993 69.1928C36.0113 68.924 35.8673 68.5208 35.8673 67.9832V64.94H37.0001V67.868C37.0001 68.1816 37.0705 68.4056 37.2113 68.54C37.3585 68.668 37.5441 68.732 37.7681 68.732C38.0049 68.732 38.2097 68.684 38.3825 68.588C38.5617 68.4856 38.7153 68.3608 38.8433 68.2136V64.94ZM43.7941 65.7656H42.5365V68.0504C42.5365 68.268 42.5877 68.4184 42.6901 68.5016C42.7989 68.5784 42.9365 68.6168 43.1029 68.6168C43.2309 68.6168 43.3653 68.604 43.5061 68.5784C43.6469 68.5528 43.7653 68.5176 43.8613 68.4728L44.0341 69.2792C43.9125 69.3304 43.7461 69.3816 43.5349 69.4328C43.3301 69.4776 43.1093 69.5 42.8725 69.5C42.3541 69.5 41.9797 69.3944 41.7493 69.1832C41.5253 68.972 41.4133 68.6552 41.4133 68.2328V65.7656H40.7221V64.94H41.4133V63.5192H42.5365V64.94H43.7941V65.7656ZM47.3097 65.7656H46.0521V68.0504C46.0521 68.268 46.1033 68.4184 46.2057 68.5016C46.3145 68.5784 46.4521 68.6168 46.6185 68.6168C46.7465 68.6168 46.8809 68.604 47.0217 68.5784C47.1625 68.5528 47.2809 68.5176 47.3769 68.4728L47.5497 69.2792C47.4281 69.3304 47.2617 69.3816 47.0505 69.4328C46.8457 69.4776 46.6249 69.5 46.3881 69.5C45.8697 69.5 45.4953 69.3944 45.2649 69.1832C45.0409 68.972 44.9289 68.6552 44.9289 68.2328V65.7656H44.2377V64.94H44.9289V63.5192H46.0521V64.94H47.3097V65.7656ZM52.6567 67.1864C52.6567 67.564 52.5959 67.9032 52.4743 68.204C52.3591 68.5048 52.1959 68.7576 51.9847 68.9624C51.7735 69.1672 51.5271 69.324 51.2455 69.4328C50.9639 69.5416 50.6599 69.596 50.3335 69.596C50.0071 69.596 49.7031 69.5448 49.4215 69.4424C49.1463 69.34 48.9063 69.1928 48.7015 69.0008C48.4967 68.8024 48.3367 68.5592 48.2215 68.2712C48.1063 67.9832 48.0487 67.6536 48.0487 67.2824C48.0487 66.8984 48.1063 66.556 48.2215 66.2552C48.3431 65.948 48.5095 65.692 48.7207 65.4872C48.9319 65.2824 49.1783 65.1256 49.4599 65.0168C49.7415 64.908 50.0455 64.8536 50.3719 64.8536C50.6983 64.8536 50.9991 64.9048 51.2743 65.0072C51.5559 65.1032 51.7991 65.2504 52.0039 65.4488C52.2087 65.6472 52.3687 65.8904 52.4839 66.1784C52.5991 66.4664 52.6567 66.8024 52.6567 67.1864ZM51.4855 67.2344C51.4855 66.9592 51.4535 66.7256 51.3895 66.5336C51.3255 66.3352 51.2391 66.1752 51.1303 66.0536C51.0279 65.932 50.9063 65.8424 50.7655 65.7848C50.6311 65.7272 50.4903 65.6984 50.3431 65.6984C50.1959 65.6984 50.0551 65.724 49.9207 65.7752C49.7863 65.82 49.6679 65.9032 49.5655 66.0248C49.4631 66.14 49.3799 66.2968 49.3159 66.4952C49.2519 66.6936 49.2199 66.94 49.2199 67.2344C49.2199 67.5032 49.2519 67.7336 49.3159 67.9256C49.3799 68.1112 49.4631 68.268 49.5655 68.396C49.6743 68.5176 49.7959 68.6072 49.9303 68.6648C50.0711 68.7224 50.2151 68.7512 50.3623 68.7512C50.5031 68.7512 50.6407 68.7256 50.7751 68.6744C50.9159 68.6232 51.0375 68.54 51.1399 68.4248C51.2423 68.3096 51.3255 68.156 51.3895 67.964C51.4535 67.7656 51.4855 67.5224 51.4855 67.2344ZM54.7376 69.5H53.6048V64.94H54.488L54.632 65.5448C54.8496 65.3272 55.0832 65.1576 55.3328 65.036C55.5824 64.9144 55.8608 64.8536 56.168 64.8536C56.6608 64.8536 57.0416 64.9912 57.3104 65.2664C57.5792 65.5352 57.7136 65.9192 57.7136 66.4184V69.5H56.5808V66.5528C56.5808 66.3096 56.5168 66.1144 56.3888 65.9672C56.2672 65.8136 56.0816 65.7368 55.832 65.7368C55.6464 65.7368 55.4576 65.788 55.2656 65.8904C55.0736 65.9864 54.8976 66.1176 54.7376 66.284V69.5Z" fill="white"/>
<path d="M31.585 11.294H33.345L33.026 10.37C32.9233 10.084 32.828 9.798 32.74 9.512C32.652 9.21867 32.5677 8.92533 32.487 8.632H32.465C32.3843 8.91067 32.2963 9.19667 32.201 9.49C32.1057 9.776 32.0067 10.0693 31.904 10.37L31.585 11.294ZM31.717 7.07H33.279L35.842 14H34.247L33.708 12.405H31.244L30.705 14H29.132L31.717 7.07Z" fill="#050505"/>
<line x1="32.5" y1="62" x2="32.5" y2="21" stroke="black"/>
<circle cx="32.5" cy="10.5" r="10" stroke="black"/>
<circle cx="32.5" cy="61.5" r="1.5" fill="black"/>
<path d="M107.542 62.7624C108.275 62.7624 108.854 62.92 109.28 63.2354C109.705 63.5507 109.918 63.9944 109.918 64.5664C109.918 64.779 109.877 64.9697 109.797 65.1384C109.723 65.307 109.624 65.4537 109.5 65.5784C109.382 65.6957 109.247 65.7947 109.093 65.8754C108.946 65.956 108.796 66.0147 108.642 66.0514C108.847 66.088 109.038 66.1504 109.214 66.2384C109.397 66.319 109.555 66.429 109.687 66.5684C109.826 66.7077 109.932 66.8764 110.006 67.0744C110.086 67.265 110.127 67.485 110.127 67.7344C110.127 68.0204 110.064 68.2844 109.94 68.5264C109.815 68.761 109.635 68.9664 109.401 69.1424C109.173 69.3184 108.895 69.454 108.565 69.5494C108.242 69.6447 107.883 69.6924 107.487 69.6924H105.067V62.7624H107.542ZM106.574 65.5344H107.289C107.619 65.5344 107.879 65.4647 108.07 65.3254C108.268 65.1787 108.367 64.9624 108.367 64.6764C108.367 64.4197 108.275 64.229 108.092 64.1044C107.916 63.9724 107.659 63.9064 107.322 63.9064H106.574V65.5344ZM106.574 68.5484H107.289C107.663 68.5484 107.971 68.4787 108.213 68.3394C108.455 68.1927 108.576 67.9434 108.576 67.5914C108.576 67.2614 108.447 67.0267 108.191 66.8874C107.934 66.7407 107.619 66.6674 107.245 66.6674H106.574V68.5484Z" fill="#050505"/>
<line x1="74" y1="66.5" x2="97" y2="66.5" stroke="black"/>
<circle cx="107.5" cy="66.5" r="10" transform="rotate(90 107.5 66.5)" stroke="black"/>
<circle cx="73.5" cy="66.5" r="1.5" transform="rotate(90 73.5 66.5)" fill="black"/>
<path d="M17.7953 111.955C18.1326 111.955 18.4186 111.926 18.6533 111.867C18.888 111.808 19.0896 111.728 19.2583 111.625L19.5663 112.725C19.3903 112.828 19.141 112.919 18.8183 113C18.4956 113.081 18.1033 113.121 17.6413 113.121C17.1206 113.121 16.6403 113.04 16.2003 112.879C15.7603 112.71 15.379 112.472 15.0563 112.164C14.741 111.849 14.4953 111.471 14.3193 111.031C14.1433 110.584 14.0553 110.081 14.0553 109.524C14.0553 108.981 14.1396 108.49 14.3083 108.05C14.4843 107.61 14.7263 107.236 15.0343 106.928C15.3496 106.613 15.731 106.371 16.1783 106.202C16.6256 106.033 17.1243 105.949 17.6743 105.949C18.1436 105.949 18.5286 105.993 18.8293 106.081C19.1373 106.169 19.3866 106.264 19.5773 106.367L19.2363 107.478C19.0456 107.375 18.833 107.291 18.5983 107.225C18.371 107.152 18.1143 107.115 17.8283 107.115C17.5276 107.115 17.2453 107.159 16.9813 107.247C16.7173 107.335 16.4863 107.478 16.2883 107.676C16.0903 107.867 15.9326 108.116 15.8153 108.424C15.7053 108.725 15.6503 109.091 15.6503 109.524C15.6503 109.942 15.7053 110.305 15.8153 110.613C15.9253 110.914 16.0756 111.163 16.2663 111.361C16.4643 111.559 16.6916 111.709 16.9483 111.812C17.2123 111.907 17.4946 111.955 17.7953 111.955Z" fill="#050505"/>
<line x1="16.5" y1="73" x2="16.5" y2="100" stroke="black"/>
<circle cx="16.5" cy="109.5" r="10" transform="rotate(-180 16.5 109.5)" stroke="black"/>
<circle cx="16.5" cy="72.5" r="1.5" transform="rotate(-180 16.5 72.5)" fill="black"/>
</svg>
