<svg width="76" height="68" viewBox="0 0 76 68" fill="none" xmlns="http://www.w3.org/2000/svg">
<path d="M0 39.5C0 38.6716 0.671573 38 1.5 38H28.5C29.3284 38 30 38.6716 30 39.5V66.5C30 67.3284 29.3284 68 28.5 68H1.5C0.671573 68 0 67.3284 0 66.5V39.5Z" fill="#D1036F"/>
<path d="M18.8571 49.1426L11.1429 56.8569M11.1429 49.1426L18.8571 56.8569" stroke="white" stroke-width="1.125" stroke-linecap="square"/>
<path d="M14.585 11.294H16.345L16.026 10.37C15.9233 10.084 15.828 9.798 15.74 9.512C15.652 9.21867 15.5677 8.92533 15.487 8.632H15.465C15.3843 8.91067 15.2963 9.19667 15.201 9.49C15.1057 9.776 15.0067 10.0693 14.904 10.37L14.585 11.294ZM14.717 7.07H16.279L18.842 14H17.247L16.708 12.405H14.244L13.705 14H12.132L14.717 7.07Z" fill="#050505"/>
<line x1="15.5" y1="48" x2="15.5" y2="20" stroke="black"/>
<circle cx="15.5" cy="10.5" r="10" stroke="black"/>
<circle cx="15.5" cy="47.5" r="1.5" fill="black"/>
<path d="M65.5417 48.7624C66.275 48.7624 66.8543 48.92 67.2797 49.2354C67.705 49.5507 67.9177 49.9944 67.9177 50.5664C67.9177 50.779 67.8773 50.9697 67.7967 51.1384C67.7233 51.307 67.6243 51.4537 67.4997 51.5784C67.3823 51.6957 67.2467 51.7947 67.0927 51.8754C66.946 51.956 66.7957 52.0147 66.6417 52.0514C66.847 52.088 67.0377 52.1504 67.2137 52.2384C67.397 52.319 67.5547 52.429 67.6867 52.5684C67.826 52.7077 67.9323 52.8764 68.0057 53.0744C68.0863 53.265 68.1267 53.485 68.1267 53.7344C68.1267 54.0204 68.0643 54.2844 67.9397 54.5264C67.815 54.761 67.6353 54.9664 67.4007 55.1424C67.1733 55.3184 66.8947 55.454 66.5647 55.5494C66.242 55.6447 65.8827 55.6924 65.4867 55.6924H63.0667V48.7624H65.5417ZM64.5737 51.5344H65.2887C65.6187 51.5344 65.879 51.4647 66.0697 51.3254C66.2677 51.1787 66.3667 50.9624 66.3667 50.6764C66.3667 50.4197 66.275 50.229 66.0917 50.1044C65.9157 49.9724 65.659 49.9064 65.3217 49.9064H64.5737V51.5344ZM64.5737 54.5484H65.2887C65.6627 54.5484 65.9707 54.4787 66.2127 54.3394C66.4547 54.1927 66.5757 53.9434 66.5757 53.5914C66.5757 53.2614 66.4473 53.0267 66.1907 52.8874C65.934 52.7407 65.6187 52.6674 65.2447 52.6674H64.5737V54.5484Z" fill="#050505"/>
<line x1="32" y1="52.5" x2="55" y2="52.5" stroke="black"/>
<circle cx="65.5" cy="52.5" r="10" transform="rotate(90 65.5 52.5)" stroke="black"/>
<circle cx="31.5" cy="52.5" r="1.5" transform="rotate(90 31.5 52.5)" fill="black"/>
</svg>
